<svg width="68" height="68" viewBox="0 0 68 68" fill="none" xmlns="http://www.w3.org/2000/svg">
<circle cx="34" cy="34" r="34" fill="#D0D1D1"/>
<path d="M32.0849 32.9504L31.3418 32.1669C33.1242 30.5537 35.8778 30.5537 37.6602 32.1669L36.9171 32.9504C35.5539 31.7167 33.4481 31.7167 32.0849 32.9504V32.9504Z" fill="#093049"/>
<path d="M44.3438 45.9128H49.8125V44.8445H46.5312V16H22.4688V44.8445H19.1875V45.9128H29.7869L30.3338 46.9811H17V48.0494H30.8807L31.0898 48.4576C31.6289 49.5197 32.7395 50.19 33.9531 50.186H42.4297L44.0703 48.0494H52V46.9811H44.3438V45.9128ZM43.25 46.9811V47.3374L41.8828 49.1177H33.9531C33.1542 49.1206 32.423 48.6793 32.0682 47.98L29.7132 43.3802C29.5915 43.1421 29.5773 42.8646 29.6743 42.6158C29.7712 42.3667 29.9704 42.1687 30.2235 42.0696C30.3392 42.0242 30.4628 42.0008 30.5878 42.0005C30.9282 42.0008 31.2439 42.175 31.4196 42.4601L32.8986 44.8445H33.9531V34.9626C33.9531 34.52 34.3203 34.1613 34.7734 34.1613C35.2266 34.1613 35.5938 34.52 35.5938 34.9626V41.6395H36.6875V40.0371H37.7812C38.0833 40.0371 38.3281 40.2762 38.3281 40.5712V42.7078H39.4219V41.1054H40.5156C40.8176 41.1054 41.0625 41.3445 41.0625 41.6395V43.7762H42.1562V42.1737H42.7031C43.0051 42.1737 43.25 42.4129 43.25 42.7078V46.9811ZM38.875 29.8881V36.298H36.6875V34.9626C36.6875 33.93 35.8306 33.093 34.7734 33.093C33.7163 33.093 32.8594 33.93 32.8594 34.9626V36.298H30.125V29.8881H38.875ZM31.2188 28.8198V26.6831C31.2188 24.9132 32.6879 23.4782 34.5 23.4782C36.3123 23.4782 37.7812 24.9132 37.7812 26.6831V28.8198H31.2188ZM42.7031 41.1054H42.0628C41.8302 40.4656 41.2107 40.0378 40.5156 40.0371H39.3284C39.0958 39.3973 38.4763 38.9695 37.7812 38.9688H36.6875V37.3663H39.9688V28.8198H38.875V26.6831C38.875 24.323 36.9163 22.4099 34.5 22.4099C32.0837 22.4099 30.125 24.323 30.125 26.6831V28.8198H29.0312V37.3663H32.8594V42.7191L32.3552 41.9066C31.7784 40.9823 30.5587 40.6656 29.5883 41.1886C28.6179 41.7115 28.2416 42.8886 28.7348 43.8578L29.2401 44.8445H25.75V34.1613H24.6562V44.8445H23.5625V17.0683H45.4375V44.8445H44.3438V42.7078C44.3438 41.8229 43.6092 41.1054 42.7031 41.1054Z" fill="#093049"/>
<path d="M26.2969 27.7515C25.3908 27.7515 24.6562 28.469 24.6562 29.3539V31.4906C24.6562 32.3755 25.3908 33.093 26.2969 33.093C27.2029 33.093 27.9375 32.3755 27.9375 31.4906V29.3539C27.9375 28.469 27.2029 27.7515 26.2969 27.7515ZM26.8438 31.4906C26.8438 31.7855 26.5989 32.0247 26.2969 32.0247C25.9949 32.0247 25.75 31.7855 25.75 31.4906V29.3539C25.75 29.0589 25.9949 28.8198 26.2969 28.8198C26.5989 28.8198 26.8438 29.0589 26.8438 29.3539V31.4906Z" fill="#093049"/>
<path d="M44.3438 18.1367H24.6562V26.6832H25.75V19.205H43.25V40.0372H44.3438V18.1367Z" fill="#093049"/>
<path d="M17 44.8442H18.0938V45.9126H17V44.8442Z" fill="#093049"/>
<path d="M50.9062 44.8442H52V45.9126H50.9062V44.8442Z" fill="#093049"/>
</svg>
