<svg width="68" height="68" viewBox="0 0 68 68" fill="none" xmlns="http://www.w3.org/2000/svg">
<circle cx="34" cy="34" r="34" fill="#D0D1D1"/>
<path d="M45.2933 38.794C44.3556 38.794 43.4721 39.0305 42.6988 39.4461L39.8875 36.6348C40.4712 35.693 40.8165 34.6343 40.8996 33.5273H42.0487C42.2941 34.7412 43.369 35.6581 44.6542 35.6581C46.1199 35.6581 47.3123 34.4657 47.3123 32.9999C47.3123 31.5342 46.1199 30.3418 44.6542 30.3418C43.369 30.3418 42.2941 31.2586 42.0487 32.4726H40.8996C40.8165 31.3654 40.4712 30.3067 39.8875 29.3651L40.983 28.2696C41.189 28.0636 41.189 27.7297 40.983 27.5239C40.7771 27.3179 40.4432 27.3179 40.2373 27.5239L39.2583 28.5028C39.0247 28.2294 38.7705 27.9753 38.4973 27.7418L42.2507 23.9884C42.3637 24.1259 42.484 24.2594 42.6124 24.3878C42.7408 24.5162 42.8743 24.6364 43.0117 24.7495L41.9813 25.7799C41.7754 25.9858 41.7754 26.3197 41.9813 26.5256C42.0842 26.6286 42.2193 26.6801 42.3542 26.6801C42.4891 26.6801 42.6241 26.6286 42.727 26.5256L43.9056 25.3471C44.7134 25.779 45.607 25.9959 46.5009 25.9959C47.9091 25.9959 49.3174 25.4598 50.3894 24.3878C51.428 23.3491 52 21.9681 52 20.4992C52 19.0303 51.428 17.6493 50.3893 16.6106C49.3506 15.572 47.9697 15 46.5008 15C45.0319 15 43.6509 15.572 42.6122 16.6107C40.8596 18.3633 40.5404 21.0139 41.6529 23.0946L37.6349 27.1126C36.693 26.5289 35.6343 26.1836 34.5273 26.1005V23.5309C35.7413 23.2856 36.6582 22.2106 36.6582 20.9254C36.6582 19.4597 35.4657 18.2673 34 18.2673C32.5343 18.2673 31.3418 19.4597 31.3418 20.9254C31.3418 22.2106 32.2587 23.2856 33.4727 23.5309V26.1005C32.3655 26.1836 31.3068 26.529 30.3651 27.1126L27.2042 23.9518C27.5116 23.309 27.6733 22.6022 27.6733 21.8844C27.6733 19.2437 25.525 17.0954 22.8843 17.0954C22.1021 17.0954 21.3257 17.2884 20.6391 17.6535C20.3819 17.7903 20.2844 18.1096 20.421 18.3668C20.5578 18.6239 20.8771 18.7216 21.1343 18.5848C21.6689 18.3003 22.2741 18.15 22.8843 18.15C24.9434 18.15 26.6186 19.8252 26.6186 21.8843C26.6186 22.3323 26.5379 22.7745 26.3832 23.19C26.1326 23.0329 25.8431 22.9474 25.54 22.9474C25.1148 22.9474 24.715 23.1131 24.4141 23.4141C24.1131 23.715 23.9474 24.115 23.9474 24.5404C23.9474 24.8433 24.0329 25.1327 24.19 25.3833C23.7745 25.538 23.3323 25.6187 22.8843 25.6187C20.8252 25.6187 19.15 23.9435 19.15 21.8844C19.15 21.2653 19.3045 20.6523 19.5968 20.1116C19.7353 19.8554 19.6399 19.5355 19.3836 19.3969C19.1274 19.2584 18.8074 19.3538 18.6689 19.61C18.2937 20.3042 18.0953 21.0907 18.0953 21.8843C18.0953 24.525 20.2436 26.6733 22.8843 26.6733C23.6021 26.6733 24.3089 26.5117 24.9517 26.2042L28.1126 29.3651C27.5289 30.307 27.1836 31.3657 27.1005 32.4727H21.2636C21.0183 31.2587 19.9433 30.3418 18.6582 30.3418C17.1924 30.3418 16 31.5343 16 33C16 34.4657 17.1924 35.6582 18.6582 35.6582C19.9433 35.6582 21.0183 34.7413 21.2636 33.5273H27.1004C27.1836 34.6345 27.5289 35.6933 28.1125 36.6349L25.7558 38.9916C25.5498 39.1976 25.5498 39.5315 25.7558 39.7373C25.8587 39.8403 25.9937 39.8918 26.1287 39.8918C26.2636 39.8918 26.3986 39.8404 26.5015 39.7373L28.7417 37.4972C28.9753 37.7706 29.2295 38.0247 29.5027 38.2582L23.3162 44.4447C23.0971 44.1589 22.8411 43.9029 22.5552 43.6837L24.7594 41.4795C24.9653 41.2735 24.9653 40.9396 24.7594 40.7337C24.5534 40.5278 24.2195 40.5278 24.0137 40.7337L21.6067 43.1407C21.1344 42.9491 20.6189 42.8426 20.0787 42.8426C17.8297 42.8426 16 44.6723 16 46.9213C16 49.1703 17.8297 51 20.0787 51C22.3277 51 24.1574 49.1703 24.1574 46.9213C24.1574 46.3811 24.0509 45.8656 23.8593 45.3933L30.3651 38.8875C31.307 39.4712 32.3657 39.8165 33.4727 39.8996V42.4692C32.2587 42.7145 31.3418 43.7895 31.3418 45.0746C31.3418 46.5404 32.5343 47.7328 34 47.7328C35.4657 47.7328 36.6582 46.5404 36.6582 45.0746C36.6582 43.7895 35.7413 42.7145 34.5273 42.4692V39.8996C35.6343 39.8165 36.693 39.4711 37.6349 38.8874L40.4462 41.6987C40.0306 42.4721 39.7941 43.3555 39.7941 44.2932C39.7941 47.3255 42.261 49.7925 45.2933 49.7925C48.3256 49.7925 50.7925 47.3255 50.7925 44.2932C50.7925 41.2609 48.3256 38.794 45.2933 38.794V38.794ZM43.358 17.3565C44.1975 16.517 45.3136 16.0547 46.5008 16.0547C47.688 16.0547 48.8041 16.517 49.6435 17.3565C50.483 18.1959 50.9453 19.3121 50.9453 20.4992C50.9453 21.6864 50.483 22.8025 49.6435 23.642C47.9106 25.3748 45.0909 25.3749 43.358 23.642C41.625 21.909 41.625 19.0894 43.358 17.3565ZM20.0787 49.9453C18.4112 49.9453 17.0547 48.5888 17.0547 46.9213C17.0547 45.2539 18.4112 43.8973 20.0787 43.8973C21.7461 43.8973 23.1027 45.2539 23.1027 46.9213C23.1027 48.5888 21.7461 49.9453 20.0787 49.9453V49.9453ZM44.654 31.3965C45.5382 31.3965 46.2575 32.1158 46.2575 33C46.2575 33.8842 45.5382 34.6035 44.654 34.6035C43.7699 34.6035 43.0506 33.8842 43.0506 33C43.0506 32.1158 43.7699 31.3965 44.654 31.3965ZM32.3965 20.9254C32.3965 20.0412 33.1158 19.3219 34 19.3219C34.8842 19.3219 35.6035 20.0412 35.6035 20.9254C35.6035 21.8096 34.8842 22.5289 34 22.5289C33.1158 22.5289 32.3965 21.8096 32.3965 20.9254ZM25.1599 24.1598C25.2616 24.0581 25.3966 24.0021 25.54 24.0021C25.6839 24.0021 25.8191 24.0581 25.9209 24.1599L29.5028 27.7418C29.2294 27.9755 28.9753 28.2296 28.7418 28.5028L25.1598 24.9208C25.0581 24.8191 25.002 24.684 25.002 24.5404C25.002 24.3967 25.0581 24.2616 25.1599 24.1598V24.1598ZM18.6582 34.6035C17.774 34.6035 17.0547 33.8842 17.0547 33C17.0547 32.1158 17.774 31.3965 18.6582 31.3965C19.5423 31.3965 20.2616 32.1158 20.2616 33C20.2616 33.8842 19.5423 34.6035 18.6582 34.6035ZM35.6035 45.0746C35.6035 45.9588 34.8842 46.6781 34 46.6781C33.1158 46.6781 32.3965 45.9588 32.3965 45.0746C32.3965 44.1904 33.1158 43.4711 34 43.4711C34.8842 43.4711 35.6035 44.1904 35.6035 45.0746ZM34 38.8648C32.7726 38.8648 31.5978 38.4899 30.6021 37.7803C30.0659 37.3992 29.6008 36.9341 29.2193 36.3973C28.5101 35.4022 28.1352 34.2274 28.1352 33C28.1352 31.7726 28.5101 30.5978 29.2197 29.6021C29.6008 29.0659 30.0659 28.6008 30.6027 28.2193C31.5978 27.5101 32.7726 27.1352 34 27.1352C35.2274 27.1352 36.4022 27.5101 37.3979 28.2197C37.9341 28.6008 38.3992 29.0659 38.7807 29.6027C39.4899 30.5978 39.8648 31.7726 39.8648 33C39.8648 34.0151 39.6076 34.9939 39.1177 35.8652L38.9186 35.6661C38.6176 35.3652 38.2178 35.1994 37.7926 35.1994C37.367 35.1994 36.9668 35.3651 36.666 35.666C36.365 35.967 36.1993 36.367 36.1993 36.7924C36.1993 37.2178 36.365 37.6178 36.666 37.9186L36.8652 38.1178C35.9939 38.6076 35.0151 38.8648 34 38.8648V38.8648ZM37.4118 37.1728C37.31 37.0711 37.254 36.936 37.254 36.7923C37.254 36.6487 37.31 36.5135 37.4118 36.4118C37.5134 36.3101 37.6487 36.2541 37.7926 36.2541C37.936 36.2541 38.071 36.3101 38.1728 36.4118L41.8057 40.0447C41.528 40.2731 41.2731 40.5281 41.0447 40.8058L37.4118 37.1728ZM45.2933 48.7378C42.8426 48.7378 40.8488 46.7441 40.8488 44.2933C40.8488 41.8426 42.8426 39.8488 45.2933 39.8488C47.7441 39.8488 49.7378 41.8426 49.7378 44.2933C49.7378 46.7441 47.7441 48.7378 45.2933 48.7378Z" fill="#093049"/>
</svg>
