<svg width="68" height="68" viewBox="0 0 68 68" fill="none" xmlns="http://www.w3.org/2000/svg">
<circle cx="34" cy="34" r="34" fill="#D0D1D1"/>
<path d="M50.4879 43.8457C50.2044 43.8457 49.9746 44.0702 49.9746 44.347V49.5944C49.9746 50.241 51.0012 50.241 51.0012 49.5944V44.347C51.0012 44.0702 50.7714 43.8457 50.4879 43.8457Z" fill="#093049"/>
<path d="M50.4854 32.5393H46.4549V30.7316H47.6875C48.4378 30.7316 49.0482 30.1354 49.0482 29.4025V17.2002C49.0482 16.4674 48.4378 15.8711 47.6875 15.8711H28.5383C27.788 15.8711 27.1776 16.4674 27.1776 17.2002V19.0003C27.1776 19.6469 28.2041 19.6469 28.2041 19.0003V17.2002C28.2041 17.0202 28.354 16.8738 28.5383 16.8738H47.6876C47.8718 16.8738 48.0218 17.0202 48.0218 17.2002V26.9215H46.455V21.5801C46.455 21.4146 46.3714 21.2599 46.2316 21.1665C46.092 21.073 45.914 21.0529 45.7561 21.1126C45.6218 21.1635 42.79 22.2931 42.1874 26.9214H28.2041V21.6072C28.2041 20.9606 27.1776 20.9606 27.1776 21.6072V29.4025C27.1776 30.1354 27.788 30.7316 28.5383 30.7316H35.4331V32.5393H23.779C24.9159 31.4301 25.0269 29.6736 25.0269 28.1978C25.0269 27.9209 24.7971 27.6964 24.5136 27.6964H21.7419V26.75C23.3885 27.0918 25.1835 25.773 25.1615 24.0999C25.1585 23.8758 25.1301 23.6482 24.9181 23.5115C23.9432 22.8829 22.6004 23.1448 21.7419 23.8312V22.9268C23.2087 21.938 23.3177 19.6094 21.9081 18.5224C21.7661 18.413 21.609 18.3087 21.4404 18.2416C20.717 17.9531 19.9218 19.2118 19.7494 19.6976C19.3421 20.8456 19.7105 22.1659 20.7153 22.8944V23.8256C20.0564 23.302 19.196 23.0438 18.3554 23.2082C18.008 23.2762 17.3992 23.4298 17.3235 23.8411C16.9979 25.6109 19.0505 27.0926 20.7154 26.7514V27.6964H17.7383C17.4548 27.6964 17.2251 27.9209 17.2251 28.1978C17.2251 29.6715 17.3069 31.4302 18.4437 32.5393H16.4723C16.1887 32.5393 15.959 32.7638 15.959 33.0407V49.5946C15.959 50.2412 16.9855 50.2412 16.9855 49.5946V47.255H26.2587V49.5946C26.2587 50.2412 27.2853 50.2412 27.2853 49.5946V36.8271H45.4358C45.4385 37.0018 45.4556 37.9426 45.4577 38.2246H36.7711C34.7418 38.2246 33.2383 38.7405 32.3023 39.758C31.1784 40.9795 31.3264 42.4602 31.3333 42.5226C31.3612 42.7774 31.5813 42.9705 31.8436 42.9705H38.4747V43.873H36.4558C35.7939 43.873 35.7939 44.8756 36.4558 44.8756H38.4747V49.0932H31.9048C31.2428 49.0932 31.2428 50.0959 31.9048 50.0959H38.8049C38.8619 50.1172 38.9234 50.1293 38.988 50.1293C39.0526 50.1293 39.1141 50.1172 39.1711 50.0959H46.0712C46.7332 50.0959 46.7332 49.0932 46.0712 49.0932H39.5013V42.9706H42.9304C44.1087 42.9706 44.9605 42.6931 45.5345 42.1223C46.5405 41.122 46.5098 39.4471 46.471 37.3264C46.468 37.1623 46.4651 36.9955 46.4625 36.827H49.9721V41.5397C49.9721 42.1863 50.9987 42.1863 50.9987 41.5397V33.0407C50.9987 32.7638 50.7689 32.5393 50.4854 32.5393ZM22.5991 24.4605C23.2597 24.0511 23.8344 24.1476 24.1336 24.2508C24.0432 25.29 22.7497 26.0462 21.761 25.7189C21.8025 25.3973 21.9696 24.8506 22.5991 24.4605ZM19.1874 25.5033C18.7513 25.2331 18.3804 24.7677 18.3324 24.2505C19.3604 23.8976 20.5692 24.6795 20.7031 25.7189C20.2045 25.884 19.6245 25.7741 19.1874 25.5033ZM21.2551 19.2915C22.1147 19.9301 22.0762 21.3877 21.2521 22.0358C20.9979 21.8316 20.6143 21.402 20.6143 20.6694C20.6143 19.9053 21.0056 19.4831 21.2551 19.2915ZM18.2589 28.6991H23.9926C23.9057 31.4074 23.0781 32.4759 21.1259 32.4759C19.1469 32.476 18.3421 31.4418 18.2589 28.6991ZM44.8022 41.4197C44.4312 41.7886 43.819 41.9679 42.9304 41.9679H32.3676C32.4151 41.5677 32.5733 40.9635 33.0659 40.4281C33.799 39.6313 35.0456 39.2273 36.7711 39.2273H45.4446C45.4021 40.2098 45.2501 40.9744 44.8022 41.4197ZM48.0217 27.9242V29.4026C48.0217 29.5826 47.8718 29.729 47.6875 29.729H46.4549V27.9242H48.0217ZM44.6256 23.3149C44.9051 22.9542 45.1861 22.6858 45.4283 22.4912V35.049C45.1869 34.8469 44.9079 34.5713 44.6304 34.2052C43.6302 32.8858 43.1015 30.9934 43.1015 28.7325C43.1015 26.4749 43.6286 24.6015 44.6256 23.3149ZM42.213 30.7317C42.311 31.4065 42.4561 32.0069 42.633 32.5394H40.7928V30.7317H42.213ZM28.2041 29.4025V27.9241H42.0963C42.0642 28.5252 42.0679 29.1283 42.1079 29.7289H28.5383C28.354 29.729 28.2041 29.5825 28.2041 29.4025ZM36.4596 30.7317H39.7662V32.5394H36.4596V30.7317V30.7317ZM43.0361 33.542C43.571 34.6583 44.2349 35.3794 44.772 35.8244H16.9855V33.542H43.0361ZM16.9855 46.2523V42.0411H26.2587V46.2523H16.9855ZM26.2587 41.0384H16.9855V36.8271H26.2587V41.0384ZM46.4549 35.8244V33.542H49.9721V35.8244H46.4549Z" fill="#093049"/>
<path d="M19.6899 39.4343H23.5908C24.2527 39.4343 24.2527 38.4316 23.5908 38.4316H19.6899C19.0279 38.4316 19.0279 39.4343 19.6899 39.4343Z" fill="#093049"/>
<path d="M23.5908 43.645H19.6899C19.0279 43.645 19.0279 44.6477 19.6899 44.6477H23.5908C24.2527 44.6477 24.2527 43.645 23.5908 43.645Z" fill="#093049"/>
</svg>
