<svg width="68" height="68" viewBox="0 0 68 68" fill="none" xmlns="http://www.w3.org/2000/svg">
<circle cx="34" cy="34" r="34" fill="#D0D1D1"/>
<path d="M54.1543 39.0502H53.9854C54.4241 38.4507 54.6241 37.769 54.5497 37.0622C54.3828 35.4745 52.8239 33.8886 51.4046 32.7536C51.4085 32.7447 51.4127 32.7345 51.4165 32.7256C51.5998 32.2789 51.5001 31.7634 51.1614 31.4126C50.891 31.1327 50.5879 30.8612 50.2613 30.6055C49.9944 30.3966 49.6077 30.4422 49.3974 30.7074C49.1869 30.9726 49.2327 31.3569 49.4997 31.5657C49.7823 31.787 50.0428 32.0207 50.277 32.2639C50.2274 32.3852 50.1646 32.5349 50.0909 32.7071C49.5291 34.0128 48.0696 37.1781 46.3754 39.0502H44.3468C44.6416 38.3265 44.9719 37.0886 45.343 34.8858C45.6551 33.0331 45.8954 31.0796 46.0425 29.7631C46.4376 29.8984 46.8965 30.0741 47.3774 30.296C47.4614 30.3346 47.5492 30.3527 47.6357 30.3527C47.868 30.3527 48.0904 30.2215 48.1945 29.9984C48.3374 29.6921 48.2032 29.3288 47.8949 29.1868C47.2486 28.8888 46.6395 28.6672 46.1534 28.5106C46.1152 28.0827 45.8522 27.6981 45.4507 27.5118C44.5784 27.1053 42.669 26.423 39.6748 26.4172C38.6696 26.4192 37.7871 26.4975 37.0248 26.6162V24.6913C37.0248 23.0959 35.7184 21.7979 34.1127 21.7979H31.2676V19.6113C31.2676 19.2738 30.9923 19 30.6523 19H21.916C21.576 19 21.3008 19.2738 21.3008 19.6113C21.3008 19.9488 21.576 20.2226 21.916 20.2226H30.0371V29.9474C29.3866 30.3514 28.749 30.8354 28.1895 31.4132C27.8514 31.7638 27.7518 32.2789 27.9351 32.7256C27.9389 32.7345 27.9431 32.7447 27.9469 32.7539C26.6633 33.7801 25.2668 35.1749 24.8877 36.605H17.3633C17.1598 36.605 16.9941 36.4404 16.9941 36.2382V20.2226H19.25C19.59 20.2226 19.8652 19.9488 19.8652 19.6113C19.8652 19.2738 19.59 19 19.25 19H16.3789C16.0389 19 15.7637 19.2738 15.7637 19.6113V36.2382C15.7637 37.017 16.3308 37.6655 17.0762 37.8005V39.0502H15.8457C14.828 39.0502 14 39.8728 14 40.884C14 41.8952 14.828 42.7179 15.8457 42.7179H16.4199V42.9216C16.4199 44.0678 17.3582 45 18.5117 45H51.4883C52.6418 45 53.5801 44.0678 53.5801 42.9216V42.7179H54.1543C55.172 42.7179 56 41.8952 56 40.884C56 39.8728 55.172 39.0502 54.1543 39.0502ZM50.8974 33.9217C52.3586 35.1402 53.2334 36.3099 53.326 37.1892C53.3971 37.8677 52.9886 38.5392 52.2012 39.0502H47.9657C49.1911 37.4408 50.2264 35.4003 50.8974 33.9217ZM44.928 28.6185L44.8995 28.8907C44.7729 30.0936 44.5057 32.441 44.1359 34.6441C43.5261 38.2778 43.0567 38.948 42.9622 39.0502H36.3891C36.293 38.9454 35.8242 38.2708 35.2157 34.6441C34.8459 32.441 34.5783 30.0936 34.4517 28.8904L34.4469 28.8433C34.4469 28.842 34.4466 28.8404 34.4466 28.8391L34.4235 28.6185C35.0513 28.3259 36.8197 27.6452 39.6745 27.6395C42.5318 27.6449 44.3 28.3259 44.928 28.6185ZM31.2823 23.0205H34.1124C35.0397 23.0205 35.794 23.7703 35.794 24.6913V26.8617C35.3118 26.9814 34.9019 27.1119 34.5636 27.2371V25.0173C34.5636 24.5907 34.214 24.243 33.7843 24.243H31.2823V23.0205ZM33.3331 25.4656V28.0531C33.2889 28.1371 33.2546 28.226 33.2312 28.3183H31.2676V25.4656H33.3331ZM30.9343 30.8344C30.9558 30.8236 30.9769 30.8118 30.9968 30.7981C30.9991 30.7965 31.0016 30.7953 31.0042 30.7937C31.8152 30.3276 32.6362 29.9929 33.3091 29.7628C33.4561 31.0793 33.6965 33.0331 34.0086 34.8858C34.38 37.0886 34.71 38.3265 35.0048 39.0502H32.9777C31.2788 37.1749 29.8211 34.0121 29.261 32.7078C29.187 32.5349 29.1242 32.3852 29.0768 32.2601C29.6302 31.6886 30.2774 31.2184 30.9343 30.8344ZM28.4538 33.922C29.1239 35.3993 30.1586 37.4392 31.3865 39.0502H27.1186C26.3781 38.5583 25.9798 37.9104 26.0208 37.25C26.0217 37.2306 26.0233 37.2112 26.0256 37.1892C26.1182 36.3099 26.993 35.1405 28.4538 33.922ZM18.3066 37.8276H24.8291C24.905 38.2584 25.0848 38.671 25.3568 39.0502H18.3066V37.8276ZM54.1543 41.4953H21.8853C21.5453 41.4953 21.27 41.7691 21.27 42.1066C21.27 42.4441 21.5453 42.7179 21.8853 42.7179H52.3496V42.9216C52.3496 43.3935 51.9632 43.7774 51.4883 43.7774H18.5117C18.0368 43.7774 17.6504 43.3935 17.6504 42.9216V42.7179H19.25C19.59 42.7179 19.8652 42.4441 19.8652 42.1066C19.8652 41.7691 19.59 41.4953 19.25 41.4953H15.8457C15.5064 41.4953 15.2305 41.2212 15.2305 40.884C15.2305 40.5469 15.5064 40.2727 15.8457 40.2727H54.1543C54.4936 40.2727 54.7695 40.5469 54.7695 40.884C54.7695 41.2212 54.4936 41.4953 54.1543 41.4953Z" fill="#093049"/>
</svg>
