<svg width="68" height="68" viewBox="0 0 68 68" fill="none" xmlns="http://www.w3.org/2000/svg">
<circle cx="34" cy="34" r="34" fill="#D0D1D1"/>
<path d="M30.3251 25.7095C30.0269 25.7095 29.7852 25.9455 29.7852 26.2368V26.8004C29.7852 27.0917 30.0269 27.3278 30.3251 27.3278C30.6232 27.3278 30.865 27.0917 30.865 26.8004V26.2368C30.865 25.9455 30.6232 25.7095 30.3251 25.7095Z" fill="#093049"/>
<path d="M37.2489 25.7095C36.9507 25.7095 36.709 25.9455 36.709 26.2368V26.8004C36.709 27.0917 36.9507 27.3278 37.2489 27.3278C37.5471 27.3278 37.7888 27.0917 37.7888 26.8004V26.2368C37.7888 25.9455 37.5471 25.7095 37.2489 25.7095Z" fill="#093049"/>
<path d="M35.9021 29.8118C35.6927 29.6044 35.3508 29.6022 35.1386 29.8068C34.9415 29.9967 34.4692 30.2184 33.7867 30.2184C33.1041 30.2184 32.6318 29.9967 32.4347 29.8068C32.2225 29.6023 31.8807 29.6043 31.6713 29.8118C31.4618 30.019 31.4641 30.3529 31.6763 30.5575C32.1413 31.0056 32.9302 31.2731 33.7867 31.2731C34.6432 31.2731 35.4321 31.0056 35.897 30.5575C36.1092 30.3529 36.1115 30.019 35.9021 29.8118Z" fill="#093049"/>
<path d="M45.3039 39.671L40.9277 38.4138L39.3705 36.3859C39.1363 36.0809 38.7788 35.894 38.3897 35.8731C38.382 35.8726 38.3745 35.8733 38.3668 35.8731V34.3798C40.1674 33.1566 41.4346 31.2339 41.7515 29.0183H42.0725C43.1247 29.0183 44.0272 28.2546 44.1272 27.2797C44.1832 26.7333 44.0002 26.1876 43.6251 25.7828C43.4436 25.5869 43.2243 25.4319 42.9832 25.3235V22.2909H42.9828C42.9828 22.2482 42.9779 22.2053 42.9671 22.163L41.5638 16.6803C41.3106 15.691 40.4046 15 39.3606 15H28.2146C27.1706 15 26.2645 15.691 26.0114 16.6802L24.608 22.163C24.5972 22.2054 24.5924 22.2482 24.5924 22.2909H24.5919V25.3469C23.9706 25.6363 23.5172 26.2094 23.448 26.8839C23.392 27.4303 23.575 27.9758 23.95 28.3808C24.3254 28.7859 24.8612 29.0182 25.4203 29.0182H25.8233C26.14 31.2346 27.4072 33.1575 29.2084 34.3805V35.8731C29.2007 35.8733 29.1932 35.8726 29.1855 35.8731C28.7963 35.894 28.4388 36.0809 28.2046 36.3859L26.6474 38.4138L22.2714 39.6709C20.5798 40.1569 19.3984 41.6991 19.3984 43.4213V50.4727C19.3984 50.764 19.6402 51 19.9383 51C20.2365 51 20.4782 50.764 20.4782 50.4727V43.4213C20.4782 42.1638 21.3409 41.0377 22.5761 40.6829L26.9719 39.4201C27.5693 40.0188 28.2912 40.5259 29.1009 40.9273H26.863C25.2926 40.9273 24.0149 42.1753 24.0149 43.7091C24.0149 44.0004 24.2566 44.2365 24.5548 44.2365C24.8529 44.2365 25.0947 44.0004 25.0947 43.7091C25.0947 42.7567 25.888 41.982 26.863 41.982H33.7876C36.4862 41.982 38.9954 41.0315 40.6034 39.4201L44.9992 40.6829C46.2344 41.0377 47.097 42.1639 47.097 43.4213V50.4727C47.097 50.764 47.3388 51 47.6369 51C47.9351 51 48.1768 50.764 48.1768 50.4727V43.4213C48.1768 41.6992 46.9954 40.1569 45.3039 39.671ZM26.1303 20.5638H37.2497C37.5479 20.5638 37.7896 20.3277 37.7896 20.0364C37.7896 19.7451 37.5479 19.5091 37.2497 19.5091H26.4003L27.0588 16.9361C27.1917 16.4171 27.6669 16.0547 28.2146 16.0547H39.3606C39.9082 16.0547 40.3834 16.4171 40.5163 16.9361L41.1748 19.5091H39.5581C39.2599 19.5091 39.0182 19.7451 39.0182 20.0364C39.0182 20.3277 39.2599 20.5638 39.5581 20.5638H41.4448L41.7519 21.7636H25.8233L26.1303 20.5638ZM41.9035 22.8183V25.1454H41.2893C40.9506 25.1454 40.6751 24.8763 40.6751 24.5455V22.8183H41.9035V22.8183ZM25.6716 22.8183H26.9V24.5454C26.9 24.8762 26.6245 25.1453 26.2858 25.1453H25.6716V22.8183V22.8183ZM26.8258 27.9273C26.8258 27.6359 26.5841 27.3999 26.2859 27.3999C25.9877 27.3999 25.746 27.6359 25.746 27.9273V27.9636H25.4203C25.1657 27.9636 24.9217 27.8577 24.7506 27.6731C24.5774 27.4861 24.4963 27.2432 24.5225 26.9891C24.5678 26.5467 24.9984 26.2001 25.5028 26.2001H26.286C27.2201 26.2001 27.98 25.4578 27.98 24.5455V22.8183H39.5953V24.5455C39.5953 25.4579 40.3553 26.2001 41.2893 26.2001H42.1549C42.4095 26.2001 42.6535 26.306 42.8245 26.4906C42.9978 26.6775 43.0788 26.9205 43.0528 27.1746C43.0074 27.617 42.5769 27.9636 42.0725 27.9636H41.8288V27.9328C41.8288 27.6416 41.5873 27.4056 41.2892 27.4055C41.2892 27.4055 41.289 27.4055 41.2889 27.4055C40.9909 27.4055 40.7493 27.6413 40.749 27.9324C40.7462 31.6791 37.6233 34.7273 33.7875 34.7273C29.9488 34.7272 26.8258 31.6768 26.8258 27.9273ZM27.7702 38.7093L29.0684 37.0187C29.1107 36.9637 29.175 36.9299 29.2448 36.9262C29.2891 36.9241 29.3533 36.9326 29.4063 36.9878C30.0296 37.6367 30.9792 38.1385 32.0799 38.4009C32.0828 38.4023 32.0934 38.4135 32.0934 38.4317L32.0936 40.7872C30.3696 40.497 28.8378 39.7681 27.7702 38.7093ZM34.402 38.4316L34.4018 40.9091C33.9958 40.9331 33.5795 40.9331 33.1735 40.9091L33.1733 38.4316C33.1733 37.9277 32.829 37.4937 32.3359 37.3762C31.5057 37.1783 30.7684 36.811 30.2882 36.3593V34.9982C31.3468 35.5 32.5341 35.7819 33.7877 35.7819C35.0411 35.7819 36.2285 35.4998 37.2872 34.9976V36.3592C36.807 36.811 36.0697 37.1783 35.2395 37.3761C34.7463 37.4937 34.402 37.9277 34.402 38.4316ZM35.4816 40.7871L35.4818 38.4316C35.4818 38.4134 35.4924 38.4022 35.4953 38.4008C36.5961 38.1385 37.5455 37.6367 38.1689 36.9877C38.217 36.9377 38.2741 36.9258 38.3175 36.9258C38.3219 36.9258 38.3263 36.9259 38.3304 36.9261C38.4003 36.9299 38.4645 36.9636 38.5067 37.0186L39.8049 38.7093C38.7374 39.7681 37.2055 40.497 35.4816 40.7871Z" fill="#093049"/>
<path d="M30.903 24.0186H29.7489C29.4507 24.0186 29.209 24.2546 29.209 24.5459C29.209 24.8372 29.4507 25.0732 29.7489 25.0732H30.903C31.2011 25.0732 31.4429 24.8372 31.4429 24.5459C31.4429 24.2546 31.2012 24.0186 30.903 24.0186Z" fill="#093049"/>
<path d="M37.8268 24.0186H36.6727C36.3745 24.0186 36.1328 24.2546 36.1328 24.5459C36.1328 24.8372 36.3745 25.0732 36.6727 25.0732H37.8268C38.125 25.0732 38.3667 24.8372 38.3667 24.5459C38.3667 24.2546 38.125 24.0186 37.8268 24.0186Z" fill="#093049"/>
<path d="M24.5536 45.4365C24.2554 45.4365 24.0137 45.6726 24.0137 45.9639V50.4729C24.0137 50.7642 24.2554 51.0003 24.5536 51.0003C24.8517 51.0003 25.0935 50.7642 25.0935 50.4729V45.9639C25.0935 45.6726 24.8517 45.4365 24.5536 45.4365Z" fill="#093049"/>
<path d="M26.869 43.7451H26.8632C26.565 43.7451 26.3262 43.9812 26.3262 44.2725C26.3262 44.5638 26.5708 44.7998 26.869 44.7998C27.1671 44.7998 27.4089 44.5638 27.4089 44.2725C27.4089 43.9812 27.1671 43.7451 26.869 43.7451Z" fill="#093049"/>
<path d="M40.7186 43.7451H40.7128C40.4146 43.7451 40.1758 43.9812 40.1758 44.2725C40.1758 44.5638 40.4204 44.7998 40.7186 44.7998C41.0169 44.7998 41.2585 44.5638 41.2585 44.2725C41.2585 43.9812 41.0168 43.7451 40.7186 43.7451Z" fill="#093049"/>
<path d="M40.7186 46.5635H40.7128C40.4146 46.5635 40.1758 46.7995 40.1758 47.0908C40.1758 47.3821 40.4204 47.6181 40.7186 47.6181C41.0169 47.6181 41.2585 47.3821 41.2585 47.0908C41.2585 46.7995 41.0168 46.5635 40.7186 46.5635Z" fill="#093049"/>
<path d="M26.869 46.5635H26.8632C26.565 46.5635 26.3262 46.7995 26.3262 47.0908C26.3262 47.3821 26.5708 47.6181 26.869 47.6181C27.1671 47.6181 27.4089 47.3821 27.4089 47.0908C27.4089 46.7995 27.1671 46.5635 26.869 46.5635Z" fill="#093049"/>
<path d="M40.7186 49.3818H40.7128C40.4146 49.3818 40.1758 49.6179 40.1758 49.9092C40.1758 50.2005 40.4204 50.4365 40.7186 50.4365C41.0169 50.4365 41.2585 50.2005 41.2585 49.9092C41.2585 49.6179 41.0168 49.3818 40.7186 49.3818Z" fill="#093049"/>
<path d="M26.869 49.3818H26.8632C26.565 49.3818 26.3262 49.6179 26.3262 49.9092C26.3262 50.2005 26.5708 50.4365 26.869 50.4365C27.1671 50.4365 27.4089 50.2005 27.4089 49.9092C27.4089 49.6179 27.1671 49.3818 26.869 49.3818Z" fill="#093049"/>
</svg>
