<svg width="68" height="68" viewBox="0 0 68 68" fill="none" xmlns="http://www.w3.org/2000/svg">
<circle cx="34" cy="34" r="34" fill="#D0D1D1"/>
<path d="M44.7072 32.0684H42.7621V30.9025L45.0165 29.9924C46.3486 29.4754 46.9995 28.0016 46.4702 26.7004C45.9409 25.3993 44.432 24.7636 43.0999 25.2805L42.7621 25.4116V17.5332C42.7621 16.1342 41.6009 15 40.1685 15H27.8491C26.4167 15 25.2555 16.1342 25.2555 17.5332V30.1798C23.1409 30.3045 21.4972 32.0259 21.5169 34.095C21.6078 36.0341 21.597 37.9765 21.4845 39.9145C21.4138 41.1811 21.3263 42.7606 21.384 43.5149C21.3966 44.6563 21.8056 45.7598 22.5439 46.6447C23.2079 47.5719 23.0912 47.456 23.6281 48.2539C24.7057 49.8549 24.6071 50.0855 24.6071 51.0988C24.6071 52.1481 25.478 52.9987 26.5523 52.9987H34.333C35.4073 52.9987 36.2782 52.1481 36.2782 51.0988V49.8011C36.2778 49.5751 36.4016 49.3663 36.6024 49.2539C37.8717 48.6192 38.9868 47.7258 39.8722 46.6339H40.1685C41.3509 46.6298 42.3808 45.845 42.6726 44.7258C42.7031 44.7258 42.7316 44.7346 42.7621 44.7346H43.4299C44.441 44.7363 45.3601 44.1619 45.7823 43.2645C46.2044 42.3672 46.0518 41.3118 45.3919 40.5636C46.0462 40.1863 46.4953 39.5447 46.6179 38.8122C46.7405 38.0798 46.5239 37.332 46.0267 36.7707C47.029 36.1898 47.5101 35.0262 47.2021 33.9283C46.894 32.8304 45.8727 32.069 44.7072 32.0684V32.0684ZM44.7072 33.335C45.4234 33.335 46.004 33.9021 46.004 34.6016C46.004 35.3012 45.4234 35.8683 44.7072 35.8683H42.7621C42.0459 35.8683 41.4653 35.3012 41.4653 34.6016C41.4653 33.9021 42.0459 33.335 42.7621 33.335H44.7072ZM44.0588 39.6681H42.7621C42.0459 39.6681 41.4653 39.101 41.4653 38.4015C41.4653 37.702 42.0459 37.1349 42.7621 37.1349H44.0588C44.775 37.1349 45.3556 37.702 45.3556 38.4015C45.3556 39.101 44.775 39.6681 44.0588 39.6681ZM43.5777 26.4585C44.2449 26.2016 44.9989 26.5216 45.2619 27.1732C45.525 27.8248 45.1974 28.5613 44.5302 28.8182L42.7621 29.5326V26.7745L43.5777 26.4585ZM31.2441 17.5332C30.9982 17.5342 30.7733 17.3983 30.6644 17.183L30.195 16.2666H37.8226L37.3532 17.183C37.2443 17.3983 37.0194 17.5342 36.7735 17.5332H31.2441ZM35.9669 48.152C35.3597 48.4883 34.9836 49.1167 34.9814 49.7986V51.0988C34.9814 51.4485 34.6911 51.7321 34.333 51.7321H26.5523C26.1942 51.7321 25.9039 51.4485 25.9039 51.0988V50.4655C25.9039 49.1057 25.0033 48.0405 24.3763 47.0456C23.2241 45.221 22.8202 45.2577 22.6769 43.4186C22.6017 42.4313 22.8215 39.5674 22.8506 38.5212C22.8668 37.8879 22.8325 35.5674 22.8137 34.0779C22.8087 33.3808 23.0875 32.7104 23.5888 32.2143C24.0901 31.7181 24.7727 31.4369 25.4863 31.4325C26.9731 31.4325 27.4691 32.3445 28.9695 32.7625C29.905 33.0141 30.8587 33.196 31.8224 33.3065C32.1419 33.3392 32.3859 33.6001 32.3904 33.9139V34.0196C32.3859 34.2406 32.2568 36.1729 29.1485 36.1729C29.1083 36.1692 29.0677 36.1733 29.0292 36.1849C28.5331 36.2248 26.2651 35.7739 25.8384 34.9398C25.6773 34.6268 25.2868 34.5006 24.9663 34.658C24.6458 34.8154 24.5167 35.1968 24.6778 35.5098C24.8213 35.7779 25.0177 36.0157 25.2555 36.2096V44.1007C25.2555 45.4997 26.4167 46.6339 27.8491 46.6339H38.1364C37.4778 47.2226 36.7495 47.7322 35.9669 48.152V48.152ZM36.8747 25.7777L35.3309 25.133C35.6168 24.8486 35.8976 24.5459 36.1686 24.2172C36.544 24.6654 36.7879 25.2047 36.874 25.7777H36.8747ZM31.104 26.228C31.2071 23.8759 33.2936 22.6916 35.1325 23.456C34.13 24.7788 32.7178 25.7508 31.1053 26.228H31.104ZM34.2623 26.0659L36.8701 27.1545C36.3021 31.1133 32.015 31.2286 31.2097 27.5123C32.3252 27.2583 33.3686 26.7641 34.2636 26.0659H34.2623ZM38.2233 35.7726V39.0658H36.9265V36.5326C36.9265 36.1828 36.6363 35.8993 36.2782 35.8993C35.9201 35.8993 35.6298 36.1828 35.6298 36.5326V39.0658H32.3878C32.3878 35.9259 32.3878 36.6149 32.382 36.5054C33.1807 35.868 33.6562 34.9228 33.6846 33.9158C33.6798 32.9249 32.8923 32.106 31.8801 32.0393C33.2147 31.2962 34.8562 31.3156 36.172 32.09C37.4878 32.8644 38.2724 34.2729 38.2233 35.7726ZM29.7943 39.0658V37.4116C30.2345 37.3795 30.6696 37.2983 31.091 37.1697V39.0658H29.7943ZM40.1685 45.3673H27.8491C27.1329 45.3673 26.5523 44.8002 26.5523 44.1007V36.9443C27.1775 37.1819 27.8312 37.3408 28.4975 37.4173V39.0658C28.4975 39.7654 29.0781 40.3325 29.7943 40.3325H38.2233C38.9395 40.3325 39.5201 39.7654 39.5201 39.0658V35.7726C39.5233 33.621 38.272 31.6553 36.295 30.7061C37.4742 29.7123 38.1694 28.2788 38.2097 26.7581C38.2097 26.7581 38.2097 26.7517 38.2097 26.7486C38.3621 25.2166 37.71 23.7136 36.4772 22.7549C33.7203 20.8037 29.7943 22.5997 29.7943 26.3996C29.7494 28.036 30.448 29.608 31.7025 30.6935C31.1303 30.9559 30.6092 31.3136 30.1625 31.7505C29.8889 31.6916 29.6069 31.6238 29.3235 31.5459C28.2757 31.2539 27.7674 30.5864 26.5523 30.2913V17.5332C26.5523 16.8337 27.1329 16.2666 27.8491 16.2666H28.7452L29.5044 17.7498C29.8322 18.3949 30.5067 18.8021 31.2441 18.7999H36.7735C37.5108 18.8021 38.1854 18.3949 38.5132 17.7498L39.2724 16.2666H40.1685C40.8847 16.2666 41.4653 16.8337 41.4653 17.5332V32.4205C40.7396 32.8241 40.2603 33.5475 40.1806 34.3595C40.1008 35.1715 40.4306 35.9706 41.0646 36.5016C40.4967 36.9776 40.1695 37.6718 40.1684 38.4027C40.1673 39.1337 40.4924 39.8288 41.0587 40.3065C40.4322 40.8349 40.1049 41.6259 40.1796 42.4311C40.2544 43.2363 40.7219 43.9569 41.4355 44.3667C41.3072 44.9501 40.7794 45.3669 40.1685 45.3673V45.3673ZM43.4299 43.4674H42.7621C42.0459 43.4674 41.4653 42.9003 41.4653 42.2007C41.4653 41.5012 42.0459 40.9341 42.7621 40.9341H43.4299C44.1461 40.9341 44.7267 41.5012 44.7267 42.2007C44.7267 42.9003 44.1461 43.4674 43.4299 43.4674Z" fill="#093049"/>
<path d="M37.5756 42.8657H30.4433C30.0852 42.8657 29.7949 43.1493 29.7949 43.499C29.7949 43.8488 30.0852 44.1323 30.4433 44.1323H37.5756C37.9337 44.1323 38.224 43.8488 38.224 43.499C38.224 43.1493 37.9337 42.8657 37.5756 42.8657Z" fill="#093049"/>
</svg>
