<svg width="15" height="16" viewBox="0 0 15 16" fill="none" xmlns="http://www.w3.org/2000/svg">
<path fill-rule="evenodd" clip-rule="evenodd" d="M13.3333 1.50963H12.5V0H10.8333V1.50963H4.16667V0H2.5V1.50963H1.66667C0.741667 1.50963 0.00833333 2.18896 0.00833333 3.01926L0 13.5867C0 14.417 0.741667 15.0963 1.66667 15.0963H13.3333C14.25 15.0963 15 14.417 15 13.5867V3.01926C15 2.18896 14.25 1.50963 13.3333 1.50963ZM4.99967 6.79157H3.333V8.3012H4.99967V6.79157ZM8.33267 6.79157H6.666V8.3012H8.33267V6.79157ZM10 6.79157H11.6667V8.3012H10V6.79157ZM1.66501 13.5851H13.3317V5.28217H1.66501V13.5851Z" fill="#4C728B"/>
</svg>
