<svg width="544" height="469" viewBox="0 0 544 469" fill="none" xmlns="http://www.w3.org/2000/svg">
<path d="M0.000305176 469L495.699 51.3404L0.000341689 51.3415L0.000305176 469Z" fill="#4AB7AE"/>
<path d="M474.885 51.3711L525.938 101.756H543.998V98.9058L495.846 51.3711H474.885Z" fill="#4AB7AE"/>
<path d="M485.252 0C456.03 0 432.43 23.6144 432.43 52.8545C432.43 82.0946 456.03 105.709 485.252 105.709C491.41 105.709 497.326 104.651 502.815 102.722L491.624 91.5243C489.576 91.819 487.447 91.9797 485.252 91.9797C462.616 91.9797 446.833 75.5046 446.833 52.9885C446.833 30.2045 462.616 13.7159 485.252 13.7159C507.888 13.7159 523.537 30.1911 523.537 52.9885C523.537 55.5066 523.336 57.9444 522.961 60.2885L534.554 71.8881C536.829 65.9811 538.074 59.5652 538.074 52.8411C538.074 23.6144 514.474 0 485.252 0Z" fill="#003A5D"/>
</svg>
