<svg width="257" height="27" viewBox="0 0 257 27" fill="none" xmlns="http://www.w3.org/2000/svg">
<path d="M20.957 0.496094H26.285V26.504H22.5909V6.19579L15.2744 26.504H11.0106L3.69409 6.19579V26.504H0V0.496094H5.32794L13.1425 21.9093L20.957 0.496094Z" fill="#003A5D"/>
<path d="M40.6731 5.52182L37.6544 14.393H43.6918L40.6731 5.52182ZM29.8398 26.504L38.7186 0.496094H42.6242L51.5064 26.504H47.7782L44.8652 17.9544H36.4469L33.5714 26.504H29.8398Z" fill="#003A5D"/>
<path d="M70.1897 0.496094H73.8838V26.504H69.8008L58.7527 6.91082V26.504H55.0586V0.496094H59.1415L70.1897 19.7368V0.496094Z" fill="#003A5D"/>
<path d="M95.0181 0.496094H98.7463V19.0218C98.7463 23.4762 95.3729 26.504 90.7544 26.504H87.5583C82.9399 26.504 79.5664 23.4762 79.5664 19.0218V0.496094H83.2946V19.0218C83.2946 21.6938 85.2491 22.9425 87.3809 22.9425H90.9318C93.0636 22.9425 95.0181 21.6938 95.0181 19.0218V0.496094Z" fill="#003A5D"/>
<path d="M131.782 5.52182L128.764 14.393H134.801L131.782 5.52182ZM120.949 26.504L129.828 0.496094H133.737L142.616 26.504H138.888L135.975 17.9544H127.556L124.681 26.504H120.949Z" fill="#003A5D"/>
<path d="M190.218 0.496094V4.06097H184.109V26.504H180.343V4.06097H174.234V0.496094H190.218Z" fill="#003A5D"/>
<path d="M208.866 0.496094H212.594V19.0218C212.594 23.4762 209.221 26.504 204.602 26.504H201.406C196.788 26.504 193.414 23.4762 193.414 19.0218V0.496094H197.142V19.0218C197.142 21.6938 199.097 22.9425 201.229 22.9425H204.779C206.911 22.9425 208.866 21.6938 208.866 19.0218V0.496094Z" fill="#003A5D"/>
<path d="M229.115 11.5397C231.246 11.5397 233.201 10.2944 233.201 7.80033C233.201 5.30628 231.246 4.06097 229.115 4.06097H222.009V11.5431H229.115V11.5397ZM236.752 25.7923V26.504H232.665L225.206 15.1046H222.009V26.504H218.281V0.496094H228.937C233.201 0.496094 236.929 3.16804 236.929 7.80033C236.929 12.2547 233.201 14.9267 229.469 15.1046L236.752 25.7923Z" fill="#003A5D"/>
<path d="M243.037 0.496094L247.939 8.83352L252.806 0.496094H256.999L249.822 12.6105V26.504H246.056V12.6105L238.883 0.496094H243.037Z" fill="#003A5D"/>
<path d="M108.16 4.06097H120.453V0.496094H108.157H105.179H104.395V26.504H108.157V15.1046H117.967V11.5397H108.157V4.07465L108.16 4.06097Z" fill="#003A5D"/>
<path d="M155.508 13.5L168.476 26.5039H173.064V25.7684L160.832 13.5H155.508Z" fill="#00B0AD"/>
<path d="M158.448 0C151.002 0 144.988 6.03155 144.988 13.5C144.988 20.9685 151.002 27 158.448 27C160.017 27 161.525 26.7297 162.923 26.2371L160.072 23.377C159.55 23.4522 159.007 23.4933 158.448 23.4933C152.68 23.4933 148.658 19.2852 148.658 13.5342C148.658 7.71478 152.68 3.50329 158.448 3.50329C164.216 3.50329 168.203 7.71135 168.203 13.5342C168.203 14.1774 168.152 14.8001 168.057 15.3988L171.011 18.3615C171.59 16.8528 171.908 15.214 171.908 13.4966C171.908 6.03155 165.894 0 158.448 0Z" fill="#003A5D"/>
</svg>
