<svg width="286" height="30" viewBox="0 0 286 30" fill="none" xmlns="http://www.w3.org/2000/svg">
<path d="M23.2856 0.552734H29.2055V29.4504H25.101V6.88573L16.9715 29.4504H12.234L4.10454 6.88573V29.4504H0V0.552734H5.91994L14.6028 24.3452L23.2856 0.552734Z" fill="#1D1D1D"/>
<path d="M45.1932 6.13687L41.8391 15.9937H48.5473L45.1932 6.13687ZM33.1562 29.4504L43.0215 0.552734H47.3611L57.2302 29.4504H53.0877L49.8511 19.9509H40.4974L37.3025 29.4504H33.1562Z" fill="#1D1D1D"/>
<path d="M77.9881 0.550781H82.0926V29.4484H77.556L65.2803 7.67825V29.4484H61.1758V0.550781H65.7124L77.9881 21.9294V0.550781Z" fill="#1D1D1D"/>
<path d="M105.575 0.550781H109.717V21.1349C109.717 26.0842 105.969 29.4484 100.837 29.4484H97.2862C92.1545 29.4484 88.4062 26.0842 88.4062 21.1349V0.550781H92.5487V21.1349C92.5487 24.1037 94.7203 25.4912 97.0891 25.4912H101.034C103.403 25.4912 105.575 24.1037 105.575 21.1349V0.550781Z" fill="#1D1D1D"/>
<path d="M146.424 6.13687L143.07 15.9937H149.778L146.424 6.13687ZM134.387 29.4504L144.252 0.552734H148.595L158.461 29.4504H154.318L151.082 19.9509H141.728L138.533 29.4504H134.387Z" fill="#1D1D1D"/>
<path d="M211.354 0.550781V4.51175H204.566V29.4484H200.382V4.51175H193.594V0.550781H211.354Z" fill="#1D1D1D"/>
<path d="M232.075 0.550781H236.217V21.1349C236.217 26.0842 232.469 29.4484 227.337 29.4484H223.786C218.655 29.4484 214.906 26.0842 214.906 21.1349V0.550781H219.049V21.1349C219.049 24.1037 221.22 25.4912 223.589 25.4912H227.534C229.903 25.4912 232.075 24.1037 232.075 21.1349V0.550781Z" fill="#1D1D1D"/>
<path d="M254.572 12.8234C256.941 12.8234 259.112 11.4397 259.112 8.66855C259.112 5.89739 256.941 4.51371 254.572 4.51371H246.678V12.8272H254.572V12.8234ZM263.058 28.6597V29.4504H258.517L250.229 16.7844H246.678V29.4504H242.535V0.552734H254.375C259.112 0.552734 263.255 3.52156 263.255 8.66855C263.255 13.6179 259.112 16.5867 254.966 16.7844L263.058 28.6597Z" fill="#1D1D1D"/>
<path d="M270.042 0.550781L275.488 9.81459L280.896 0.550781H285.554L277.58 14.0112V29.4484H273.396V14.0112L265.426 0.550781H270.042Z" fill="#1D1D1D"/>
<path d="M120.176 4.51175H133.835V0.550781H120.173H116.864H115.992V29.4484H120.173V16.7824H131.072V12.8214H120.173V4.52696L120.176 4.51175Z" fill="#1D1D1D"/>
<path d="M172.785 15L187.195 29.4488H192.292V28.6315L178.701 15H172.785Z" fill="#1D1D1D"/>
<path d="M176.053 0C167.779 0 161.098 6.70172 161.098 15C161.098 23.2983 167.779 30 176.053 30C177.796 30 179.471 29.6997 181.025 29.1523L177.857 25.9744C177.277 26.058 176.674 26.1036 176.053 26.1036C169.644 26.1036 165.176 21.428 165.176 15.038C165.176 8.57197 169.644 3.89255 176.053 3.89255C182.462 3.89255 186.892 8.56817 186.892 15.038C186.892 15.7527 186.835 16.4445 186.729 17.1097L190.011 20.4017C190.656 18.7253 191.008 16.9045 191.008 14.9962C191.008 6.70172 184.326 0 176.053 0Z" fill="#1D1D1D"/>
</svg>
