<svg width="113" height="108" viewBox="0 0 113 108" fill="none" xmlns="http://www.w3.org/2000/svg">
<path d="M43 52.9648L94.7078 103.996H113V101.109L64.2298 52.9648H43Z" fill="#4AB7AE"/>
<path d="M53.5 0.933594C23.9028 0.933594 0 24.851 0 54.4662C0 84.0815 23.9028 107.999 53.5 107.999C59.7367 107.999 65.7294 106.927 71.2882 104.974L59.9536 93.6322C57.8792 93.9306 55.7235 94.0934 53.5 94.0934C30.5733 94.0934 14.5885 77.4069 14.5885 54.6019C14.5885 31.5256 30.5733 14.8255 53.5 14.8255C76.4266 14.8255 92.276 31.512 92.276 54.6019C92.276 57.1524 92.0726 59.6214 91.693 61.9955L103.434 73.7439C105.739 67.7612 107 61.263 107 54.4527C107 24.851 83.0972 0.933594 53.5 0.933594Z" fill="#003A5D"/>
</svg>
