<svg width="26" height="25" viewBox="0 0 26 25" fill="none" xmlns="http://www.w3.org/2000/svg">
<mask id="mask0" mask-type="alpha" maskUnits="userSpaceOnUse" x="0" y="0" width="26" height="25">
<path d="M26 0H0.90649V24.9743H26V0Z" fill="white"/>
</mask>
<g mask="url(#mask0)">
<path fill-rule="evenodd" clip-rule="evenodd" d="M13.4533 0C16.8607 0 17.288 0.0143947 18.6262 0.0752365C19.9618 0.135694 20.8738 0.347009 21.6718 0.655632C22.497 0.974619 23.1966 1.40166 23.8941 2.09587C24.5916 2.79008 25.0205 3.4864 25.3414 4.30748C25.6515 5.10188 25.8637 6.0097 25.9244 7.33863C25.9855 8.67062 26 9.09593 26 12.4871C26 15.8783 25.9855 16.3037 25.9244 17.6357C25.8637 18.9648 25.6515 19.8724 25.3414 20.6668C25.0205 21.4879 24.5916 22.1842 23.8941 22.8784C23.1966 23.5726 22.497 23.9997 21.6718 24.3187C20.8738 24.6273 19.9618 24.8384 18.6262 24.899C17.288 24.9599 16.8607 24.9743 13.4533 24.9743C10.0457 24.9743 9.61853 24.9599 8.28037 24.899C6.94472 24.8384 6.03275 24.6273 5.23476 24.3187C4.40957 23.9997 3.70993 23.5726 3.01221 22.8784C2.31488 22.1842 1.88599 21.4879 1.5651 20.6668C1.255 19.8724 1.04287 18.9648 0.981932 17.6357C0.920994 16.3037 0.906336 15.8783 0.906336 12.4871C0.906336 9.09593 0.920994 8.67062 0.981932 7.33863C1.04287 6.0097 1.255 5.10188 1.5651 4.30748C1.88599 3.4864 2.31488 2.79008 3.01221 2.09587C3.70993 1.40166 4.40957 0.974619 5.23476 0.655632C6.03275 0.347009 6.94472 0.135694 8.28037 0.0752365C9.61853 0.0143947 10.0457 0 13.4533 0ZM13.4533 2.24999C10.1031 2.24999 9.70627 2.26266 8.38335 2.32273C7.15994 2.37839 6.49578 2.58165 6.05358 2.75285C5.46791 2.97913 5.05001 3.24995 4.6109 3.68678C4.17179 4.12361 3.89988 4.53971 3.67232 5.12241C3.50069 5.56251 3.29608 6.2239 3.24035 7.44112C3.17999 8.75795 3.16707 9.15294 3.16707 12.4871C3.16707 15.8213 3.17999 16.2161 3.24035 17.5332C3.29608 18.7504 3.50069 19.4118 3.67232 19.8517C3.89988 20.4346 4.17179 20.8507 4.61071 21.2875C5.05001 21.7243 5.46791 21.9951 6.05358 22.2216C6.49578 22.3926 7.15994 22.5959 8.38335 22.6515C9.70608 22.7116 10.103 22.7243 13.4533 22.7243C16.8036 22.7243 17.2004 22.7116 18.5232 22.6515C19.7466 22.5959 20.4108 22.3926 20.8529 22.2216C21.4386 21.9951 21.8565 21.7243 22.2956 21.2875C22.7345 20.8507 23.0065 20.4346 23.2342 19.8517C23.4058 19.4118 23.6104 18.7504 23.6662 17.5332C23.7263 16.2161 23.7393 15.8213 23.7393 12.4871C23.7393 9.15294 23.7263 8.75795 23.6662 7.44112C23.6104 6.2239 23.4058 5.56251 23.2342 5.12241C23.0065 4.53971 22.7347 4.12361 22.2956 3.68678C21.8565 3.24995 21.4386 2.97913 20.8529 2.75285C20.4108 2.58165 19.7466 2.37839 18.5232 2.32273C17.2003 2.26266 16.8034 2.24999 13.4533 2.24999Z" fill="white"/>
</g>
<path fill-rule="evenodd" clip-rule="evenodd" d="M13.551 17.2066C16.0697 17.2066 18.1113 15.1648 18.1113 12.6461C18.1113 10.1279 16.0697 8.08613 13.551 8.08613C11.0323 8.08613 8.99075 10.1279 8.99075 12.6461C8.99075 15.1648 11.0323 17.2066 13.551 17.2066ZM13.551 5.62109C17.4308 5.62109 20.5762 8.76637 20.5762 12.6461C20.5762 16.5263 17.4308 19.6716 13.551 19.6716C9.671 19.6716 6.52567 16.5263 6.52567 12.6461C6.52567 8.76637 9.671 5.62109 13.551 5.62109Z" fill="white"/>
<path fill-rule="evenodd" clip-rule="evenodd" d="M5.13063 5.76214C5.13063 6.61676 5.86821 7.30964 6.77842 7.30964C7.6882 7.30964 8.42578 6.61676 8.42578 5.76214C8.42578 4.90753 7.6882 4.21484 6.77842 4.21484C5.86821 4.21484 5.13063 4.90753 5.13063 5.76214Z" fill="white"/>
</svg>
