<svg width="32" height="20" viewBox="0 0 32 20" fill="none" xmlns="http://www.w3.org/2000/svg">
<path fill-rule="evenodd" clip-rule="evenodd" d="M31.2658 1.2868C31.4883 0.545128 31.2658 0 30.2071 0H26.7062C25.816 0 25.4059 0.47086 25.1834 0.990231C25.1834 0.990231 23.403 5.32949 20.8809 8.14815C20.0649 8.96409 19.6941 9.2234 19.249 9.2234C19.0264 9.2234 18.7044 8.96409 18.7044 8.22242V1.2868C18.7044 0.396594 18.4461 0 17.7041 0H12.2028C11.6467 0 11.3121 0.413097 11.3121 0.804688C11.3121 1.64864 12.5729 1.84318 12.703 4.21673V9.37219C12.703 10.5025 12.4989 10.7075 12.0538 10.7075C10.867 10.7075 7.98036 6.34848 6.26796 1.36107C5.93238 0.391592 5.59581 0 4.7011 0H1.20028C0.200047 0 0 0.47086 0 0.990231C0 1.91745 1.18703 6.51652 5.52629 12.5989C8.41947 16.7524 12.4949 19.0044 16.2038 19.0044C18.4293 19.0044 18.7044 18.5043 18.7044 17.6429V14.5034C18.7044 13.5032 18.9152 13.3036 19.6196 13.3036C20.1392 13.3036 21.0292 13.5632 23.1064 15.5659C25.4799 17.9392 25.871 19.0044 27.2064 19.0044H30.7072C31.7074 19.0044 32.2075 18.5043 31.919 17.5173C31.6034 16.5336 30.4701 15.1068 28.9663 13.4149C28.1503 12.4504 26.9263 11.4119 26.5557 10.8928C26.0363 10.2251 26.1846 9.92857 26.5557 9.33543C26.5557 9.33543 30.8207 3.32703 31.2658 1.28705V1.2868Z" fill="white"/>
</svg>
